<svg id="sky" xmlns="http://www.w3.org/2000/svg" viewBox="0 0 1656.47 1006.03"><defs><style>.cls-1{fill:#73adfe;}.cls-2{fill:#b4ccf4;}.cls-3{fill:#a2cbfb;}.cls-4{fill:#8bbdfe;}</style></defs><path class="cls-1" d="M1114,337" transform="translate(308.59)"/><rect class="cls-2" x="308.59" width="1024" height="720"/><path class="cls-3" d="M-83.79,119.76c9.89-6.82,25.64-2.67,37.64-8.44,11-5.29,18.38-18.25,30.76-22.52,11.73-4,24.28-4.45,36.85-7.46,12.2-2.92,23.78-7.06,36.44-8.9s24.16-13,36.82-13.68,25.37,11.15,37.93,11.74c14.46.67,28.32-10.73,39.69-8.68,13.71,2.46,26.79,4.85,38.46,8.62,12,3.88,20.83,17,33.6,21.44,11.13,3.87,25.2.66,39,4.36,11.19,3,20.47,20.68,34.57,23.25,11.5,2.09,24.92,3.11,39,4.73,9.12,1.06,20.41,7.63,33.73,8.69,10.22.81,22.45-2.81,34.81-2.45,10.62.31,21.94-23.32,33.95-23.62,10.81-.28,22.36,11,34.15,10.06,10.89-.9,23,4.33,34.6,2.69,10.89-1.53,18.24-23.84,29.68-26.16,13.81-2.79,30.28,14.37,40.87,11.33,13.94-4,28.82-1.28,38.78-5.36,13.4-5.5,16.65-27.94,26.67-32.71,11.36-5.41,28,9.77,41.05,6.66,10.33-2.46,19-6.92,33.94-7.12,12.46-.18,22.78-.16,34.64,1.51s24.46-4.33,36.49-.91c11.1,3.17,24.92.22,36.89,4.82,10.66,4.1,17.88,18.25,29.71,23.45,10.45,4.59,20.59,11.21,32.28,16.63,10.4,4.82,29.42-7.29,41-1.83,5.64,2.65,15.56,10.79,29.11,17.45,9.18,4.52,15.38,18.05,25.85,23.54,9.93,5.22,18.75,12.86,28.18,18.34,10.66,6.2,21.33,10.74,29.14,16.46,9.21,6.74,21.84,10.61,30,19.3,7.79,8.26,6.21,24.4,13.06,34.22,6.5,9.32,28.18,10,33.82,20.58,5.39,10,1.47,25.52,6.06,36.51,4.41,10.56,10.59,20.93,14.26,32.21,3.54,10.92,3.13,23.3,6,34.78,2.77,11.18,17.39,20.39,19.48,32,2,11.38-3.24,24.49-1.85,36.15s-4.3,23.84-3.59,35.53,9.59,23.14,9.63,34.81,1.44,23.81.83,35.43-12.77,22.56-14.07,34.09,1.37,23.8-.65,35.2c-2,11.59,1,24.49-1.73,35.69-2.85,11.45-6.25,23.2-9.88,34.12-3.73,11.23-19.79,17.68-24.36,28.21-4.71,10.87-11,20.08-16.59,30.07-5.84,10.38,3.36,30.74-3.67,40.52-6.92,9.63-24.13,11.95-32.14,21-7.84,8.86-19.84,13.52-28.66,21.82-8.61,8.1-10.75,23.86-20.22,31.42-9.24,7.36-18.72,15.31-28.72,22.16-9.75,6.68-28,.14-38.39,6.33-10.17,6-15.47,20.61-26.23,26.17-10.5,5.42-17.94,18.11-29,23.09-10.8,4.86-20.17,14.88-31.41,19.32-11,4.34-24.75,3.19-36.18,7.11-11.22,3.85-23.27,6.55-34.83,10-11.38,3.39-24.6,1.16-36.28,4.15-11.51,3-24.07,1.84-35.84,4.4s-22,12.07-33.81,14.22-23,8.72-34.91,10.47-24.48-1.14-36.42.22-23.88,3.1-35.84,4.09-24.66-10.57-36.63-9.95-23.41,14.65-35.39,14.91-24.11-1.59-36.09-1.7-23.79-8-35.74-8.44-24.21,4-36.13,3.21-23.88-2.71-35.77-3.92-23.45-5.81-35.28-7.39-22.3-11.63-34.07-13.61-25.14,5-36.82,2.67-26.27,6.7-37.85,3.91-19.14-22.17-30.6-25.39-22.15-8.8-33.47-12.47S156.16,929.72,145,925.57c-11.29-4.2-30.83,12.76-41.77,8.12-11.1-4.72-24.09-6.41-34.78-11.58C57.61,916.85,53,899,42.56,893.31c-10.57-5.82-18-16.44-28.05-22.75-10.21-6.43-22.11-9.77-31.74-16.7-9.79-7-18.84-14.68-28-22.25s-15.75-18-24.31-26.22S-85,787.71-92.88,778.8s-19.18-14.79-26.29-24.36-5.87-24.16-12.1-34.37-17.15-17.38-22.61-28.44c-5.34-10.82-23.65-16.19-28.21-27.63-4.48-11.22-1.69-25.61-5.42-37.32-3.67-11.53,6.77-26.82,3.82-38.73s-26.52-19.06-28.74-31.11-2.72-24.72-4.21-36.85,5.49-25.22,4.69-37.38-9.44-24.29-9.54-36.45,18.28-24,18.88-36.11,5.83-23.31,7.16-35.34c1.36-12.22-13.54-26.29-11.44-38.17,2.16-12.15,15.1-21.62,18-33.3,3-12,1.47-24.66,5.31-36,4-11.74,12.81-20.81,17.66-31.77,5-11.36-.28-27.41,5.68-37.79,6.19-10.77,20.14-16,27.35-25.58A237.11,237.11,0,0,1-109.5,145C-100.71,136.36-93.75,126.63-83.79,119.76Z" transform="translate(308.59)"/><path class="cls-4" d="M-62.67,239.08c12.23,2.11,25.39,9.89,35.82,6.23,10.26-3.6,17.49-16.61,27.52-23.19,9.06-6,22.07-6.7,32.09-13.06C42,203.2,47.65,190.65,58.57,186c11.69-5,23.08-15.66,37.09-17,11.18-1.08,24.51,14.09,39.49,14.33,11.37.18,24.45-12,39.06-11.46,14.13.48,26.3,8.39,37.53,9.61,14.19,1.54,25.1,9.56,36.18,11.81,13.46,2.73,27.34-3.81,39-.89,11.94,3,22.34,12.93,35.65,15.12,11.19,1.84,23.83,6.13,38.11,6.76,13.13.57,24.71,2.73,33.83,1.81,11.39-1.15,21.78-6,32.77-8.87,9-2.32,15-20.79,27.66-23.8,9-2.15,22.83,11.34,35.26,9,9.44-1.77,19.73-3.94,31.8-5.74s22.29-19.16,34.74-20.9c12.22-1.71,26.46,11.38,39,10,12.25-1.38,24.56-.24,37.11-1.12,12.29-.85,24.15-9.9,36.76-10.07,12.29-.16,24.23,9.84,36.86,10.51,12.23.65,24.67-4.14,37.25-2.54,12.11,1.54,23.79,5.11,36.25,7.69,13,2.69,24.27,4.62,34.48,7.7,12.86,3.87,24.17,5.86,34,10.08,11.92,5.12,21.9,10.61,31.93,15.73,10.48,5.36,20.18,12.42,31.79,17.15,10,4,23.83-1.22,36.88,1.94,10.28,2.5,21.35,4.19,34.69,5.91,13.66,1.75,25.49-.66,36.71-.41,14,.32,25.61,4.19,36.65,3,13.91-1.5,27.42,5.66,38.37,3.41,13.18-2.7,23.29-17.44,35.18-18.31,11.63-.84,22.2,12.57,35.69,16.5,11.1,3.23,25.67-.9,36.3,5.57a196.74,196.74,0,0,1,29.19,22c8.55,7.75,12.66,20.59,20.57,30.11,7.43,8.94,16.1,17.29,22.85,27.55,6.43,9.79,18,17.2,23.72,28,5.51,10.41,10.55,21.86,15.29,33,4.63,10.9-4.77,27.14-1,38.59,3.75,11.29,23.61,18,26.49,29.66s.17,24.87,2.08,36.68,1.68,24.13,2.56,36,3.63,24.17,3.37,36.05c-.27,12.06.84,24.69-.7,36.45-1.56,12-7.81,23.45-10.78,34.93-3,11.67-8.16,22.76-12.74,33.73-4.82,11.55-16.35,18.85-22.77,29.12-6.52,10.43-4.82,26.84-13,36.07-8,9-18.26,17-27.9,25-9.2,7.63-20.37,13.69-31.06,20.47-10,6.37-20.47,13.29-31.83,19-10.6,5.33-24.14,5.17-35.91,10-11,4.5-24.2,3.22-36.22,7.32-11.25,3.84-20.53,14.45-32.7,18-11.44,3.34-20.84,16-33.09,19.15-11.58,2.93-24,4.75-36.3,7.51-11.68,2.62-23.86,5.1-36.2,7.59-11.76,2.37-24.45,1.92-36.81,4.2-11.81,2.17-25.23-3.12-37.6-1-11.86,2-24.71-.81-37.08,1.17-11.9,1.91-21.59,19.44-34,21.32-11.93,1.81-24.24,2.75-36.61,4.55-12,1.74-25.4-5.44-37.76-3.69-12,1.69-22.87,12.47-35.22,14.17-12,1.66-26.33-12.6-38.68-10.92-12,1.64-22.6,14.85-34.94,16.51-12,1.62-24.09,3.91-36.43,5.57-12,1.62-24.92-5-36.58-3.48-12,1.61-22.07,16.32-33.73,17.87-12,1.6-24.92-5-36.57-3.46-12,1.58-23.89,2.78-35.54,4.28-12,1.55-25-6-36.64-4.53-12,1.51-22.82,11.47-34.46,12.87-12.06,1.44-23.15,9.52-34.79,10.83-12.09,1.37-24.6-3.12-36.24-1.9-12.11,1.27-24.37-1.72-36-.63-12.13,1.13-24.31-2.28-36-1.36-12.16,1-23.27,12-34.92,12.72-12.19.76-23.84,8.67-35.48,9.14-12.22.49-24.38,1.2-36,1.36-12.24.16-24.13-17.34-35.75-17.58-12.25-.24-24.51,10.27-36.1,9.54-12.23-.76-24.12-3-35.66-4.3-12.17-1.41-22.2-13.45-33.64-15.53-12-2.19-23-4.7-34.23-7.68-11.77-3.11-22.21-6.8-33.21-10.83-11.35-4.16-21.85-7.53-32.46-12.73s-22.08-7.88-32.13-14.3-23.86-7.24-33.23-14.81c-9.13-7.39-22-11.71-30.56-20.3s-3.88-29.55-11.73-39.09-29.95-8.2-36.91-18.41-8.25-24.37-14.33-35.12-16.79-19.48-22-30.65-11.86-22.43-16.23-33.94,7.62-28.7,4.09-40.47-4.58-23.71-7.25-35.68-23.75-20.72-25.57-32.82c-1.84-12.28,10.16-26.27,9.24-38.44-.94-12.41-.48-24.45-.45-36.62,0-12.48-3-24.74-2-36.82,1.1-12.48-5.23-26.1-3-38,2.3-12.35,11.49-23.26,15-34.8a284,284,0,0,1,12.75-34.77c5.22-11.45,7.46-24.93,14.14-35,5.38-8.08,14.36-17.6,23.32-28.35,7.21-8.65,21.59-12.19,30.44-21.21,8.31-8.48,10.79-23.88,20-31.64,9.45-7.94,20.62-14.48,30.51-20.6,10.92-6.74,22-15.51,32.76-18.66,12.41-3.64,28.78-5.68,39.95-2.46C-75.92,226.78-75.26,236.9-62.67,239.08Z" transform="translate(308.59)"/><path class="cls-1" d="M-78.21,367c12.9-1.45,22.79-13.51,33.08-16.11,12.59-3.17,22.25-8.39,32-12.83,11.43-5.2,25.9-2.9,35.16-9.12,9.86-6.63,20.16-12.25,29.76-19.11,9.15-6.54,18.52-11.64,29.46-17.56,9.49-5.14,14.65-21.86,26.87-25.95A261,261,0,0,1,143,257.68c13.61-2.49,26.86,6.08,38,5.79A185.26,185.26,0,0,1,217.23,266c12.58,2.06,25.92-2.62,37.83.65,11.48,3.15,20.53,17.54,33.36,20.37,11.14,2.46,25.4-9.17,38.93-7.95,11.22,1,22.81,3.11,36.47,2.67,11.31-.37,23.64,2.21,37.09.51,13.12-1.65,25.67,4.19,35.06,2.07,13-2.93,21.33-13.84,30.66-17.23,10.67-3.88,17.83-15.43,29.38-19.19,9.19-3,21.32-2.69,34.51-5.16,9.54-1.79,20.88-4.07,33.89-5.41,7.74-.81,20.28-1.83,36.06-2.41,10.42-.39,22.62,4.93,36,5.22,11,.24,23.33-3.76,36.07-2.78,11.27.87,22.81,6.62,35.23,8.27,11.35,1.5,21.62,11.51,33.79,13.8,11.34,2.14,25.91-9,37.86-6.05,12.17,3,19.36,18.08,28.74,21,12.36,3.89,27.67-6.16,36.49-2.52,12.14,5,19.4,15.36,28.15,19.52C883.1,296.31,889.52,310,901,313c9.11,2.38,21.29,2.15,34.71,2.9,14.58.81,28.08-4.13,39.84-5.6,14.4-1.81,24.07-14.75,35.48-18.48,13.47-4.42,26.63-4.83,38-9.46,12.62-5.12,25.15-12.18,38.1-14.07,11.84-1.72,23.78,10.51,38.34,14.44,11.36,3.06,22.27,3.77,31.88,9.57,9.88,6,19.55,11.74,27.69,19.66s20.42,13.37,27,22.47c7,9.59,11.62,21,16.82,30.6,6,11,2.69,25.37,6.54,34.73,6.51,15.82,13.42,26.44,14.66,30.76,3.41,11.85,4.57,23.76,6.22,35.83s-3.29,24-3.3,36.19,1.9,23.74.28,35.82,2.51,25.18-.66,36.94c-3.22,11.92-11.76,21.69-16.44,32.9-4.77,11.43.27,27.91-5.9,38.33-6.32,10.69-25.06,12.6-32.72,21.95-7.46,9.11-15.12,16.31-25.22,24.53-8.67,7.06-11.66,23.85-23.64,30.19a273.16,273.16,0,0,1-33.94,15.64c-10.5,3.85-25.7-4-38.62-.55-10.94,2.94-20.8,13.55-33.73,16.21-11.22,2.31-24,.27-36.87,2.37-11.42,1.85-23.47,3.22-36.3,4.9-11.55,1.51-23.12,7.61-35.9,9-11.65,1.25-23.76,3.45-36.49,4.58-11.72,1-23.92,2.52-36.62,3.44-12.46.91-24.64-1-36.17-.34-12.51.74-24.73-4.07-36.24-3.59-12.55.53-24.48-.8-36-.54-12.59.28-24.42,9.94-35.9,9.94-12.6,0-24.53-4.59-36-4.87-12.57-.32-24.9,7.6-36.4,7-12.47-.63-23.88-10.39-35.47-11.24-12.29-.91-24.44,1.31-36.18.27-12-1.07-23.18-10.43-35.15-11.52-11.81-1.08-24.47,6.39-36.68,5.41-11.63-.93-23.88,4.19-36.3,3.45-11.52-.68-22.91-12.47-35.45-12.9-11.47-.39-23.67,12.67-36.26,12.56-11.47-.1-23.27-2.27-35.87-2.08-11.48.16-23.53-5.4-36.1-5-11.5.41-23.27,4.86-35.8,5.52s-24.7-4.66-36.2-3.87c-12.45.86-24.56-.17-36,.8-12.48,1.06-23.88,7.68-35.27,8.8-12.52,1.24-24.15,4.64-35.48,5.86-12.56,1.36-25.6-8-36.87-6.79-12.62,1.37-23.91,7.79-35.16,8.82C56.6,785.71,44.8,787.47,33.52,788c-12.64.55-24.5.44-35.89-.19-12.32-.68-22.31-10.07-33.82-12.57s-24.89,2.84-36.26-2a233.53,233.53,0,0,1-32-16.49c-10.55-6.51-14.63-20.82-23.79-28.25-9.6-7.79-24.45-8.85-32.64-17.37-8.57-8.92-18.59-16.63-25.74-26-7.53-9.89-6.66-25-12.74-35-6.53-10.75-19.71-17.27-24.73-27.68-5.6-11.59-2.31-26.11-6.28-36.62-4.8-12.73-5.24-24.81-8.06-34.84-5.65-20.13-11.75-31.8-12-33.57-1.31-9.34-10.09-21.86-10.93-36.88-.66-11.9,1.78-25,3.18-38,1.36-12.59,2.14-25.92,6.91-37.47s10.78-24.68,20.53-33.21c10.78-9.42,25.07-7.14,37.62-8.67,11.32-1.38,23.81-10.21,38.21-9.24,11.39.78,23.56,8.4,37.76,8.47C-105.58,362.47-92.14,368.54-78.21,367Z" transform="translate(308.59)"/><path class="cls-3" d="M-23.71,384.81c12.72-2.15,18.55-7.57,26.08-11.5,8.33-4.34,17.45-5.68,27.9-11.67a215.13,215.13,0,0,1,27.65-13.33c10.82-4.34,24.31,2.94,36,.47,10.48-2.22,20-12.33,32.65-13.65,10.43-1.08,22.39,5.91,35.19,5.08,10.56-.68,21.72-6.22,34.39-6.92,14.82-.82,27.14-4.94,37.85-5.19,16-.38,28,4.09,38,4.37,15,.43,25.64,6.37,38.15,6.28,10.19-.08,20.77-16.44,37-18.29,14.15-1.61,26,1.42,35.85-.49,14.17-2.74,28,6.53,38.06,3.73,11.15-3.11,20-8.79,33.41-11.1,9.77-1.67,20.47-1.84,35-2.67,11.84-.67,18.32-12.23,31.62-11.24,7.64.57,17.88-3,32.14-1.82,8.74.73,18.48,9.5,31.06,10.49,9.32.73,19.9.6,31.82,1.48,14.26,1.05,26.54,5.09,37.55,5.83,15.18,1,28-5.15,38.2-4.55,17.47,1,28.18,13.42,37.13,13.92,13.89.79,22.94-9.73,38.68-7.34,14.2,2.15,25.25,9.54,35.45,11.72,14.83,3.17,28.09-.54,37.68,2.35,13.35,4,23.93,3,35.89,5.62,9.94,2.15,18.91,13.73,34.34,14.21,14.28.44,26.06-4.14,36.86-5.34,14.52-1.6,26.76-.15,37.08-3.05,13.71-3.85,26.32,0,37.55-2.14s17.88,1.37,32.26,5.42c10.94,3.08,25-3.71,35.17,2.81,9.54,6.12,17.34,15,25.78,23.55,8,8.15,17.56,15.5,24.24,25.39,6.45,9.55,12.87,19.73,17.76,30.49,4.82,10.58,9.61,21.75,12.62,33.09s-11,24.59-10.14,36.24,1.69,20.74.22,32.35c-1.5,11.9-1.1,21.28-4.85,31.74-4,11.12-2.86,22.86-8.75,32.46-6.12,10-14.54,17.06-22,25.54-7.79,8.82-10.44,22.17-18.91,29.51-9.08,7.87-18,15.58-26.9,21.92-10.28,7.34-22,11-30.5,16.61-6.71,4.36-15,14.24-30.38,21.31a359,359,0,0,1-34.36,14c-10.34,3.54-22.07,7.88-35.26,11.36-10.88,2.87-21.05,15.25-34.08,17.93-11.21,2.31-24.78-1.2-37.71.89-11.43,1.84-22.94,10.75-35.8,12.36-11.78,1.48-25.17-13.75-36.29-12.72-11.68,1.08-23.16-.56-34.48.08-11.51.65-22.54,12.18-34.07,12.44-11.32.26-22.93-3.22-34.66-3.28-11.17,0-22.25-17.86-34.11-18.15-11.07-.27-22.69,8.78-34.64,8.35-11-.39-22.57,2.08-34.56,1.58-12.93-.53-25.52,2.07-37.53,1.53-13-.58-25.36-2.77-37.31-3.35-13.05-.64-25.85,5.33-37.72,4.7-13.14-.71-25.42-4.69-37.21-5.39-13.24-.78-25.09-10.68-36.77-11.45-13.4-.88-25.78-1.51-37.31-2.36-13.6-1-26.41,3.85-37.73,2.92-13.93-1.15-27.06,6.61-38.1,5.6-14.36-1.31-26-8.25-36.73-9.27-14.6-1.37-26.31-2.79-37.16-3.42-12.89-.75-24.29-5.45-37.31-4.83-10.81.52-22,8.26-36.62,10-13.47,1.56-27.88-9.54-39.78-7.74-13.54,2-25,11.6-36.74,13.65-13.67,2.4-24.94,12.26-36.52,14.19-13.93,2.31-27.76-4.29-39.3-3.48-14,1-27.7,7.27-39.32,4.57-12.13-2.82-29.52-4.07-40.4-12.69-11.85-9.38-10.19-27.58-15.3-40.61-3.72-9.49-1-23.24-6.18-39.12-3.38-10.36-20.22-18-25.71-32.36-4.1-10.73-3.43-24.78-9.27-38.26-4.72-10.86-4-25.53-10.15-38.43-5.4-11.37-10.25-22-15-31.46-5.74-11.58-21.38-16.9-25.65-26.27-5.61-12.29-11.31-23.87-13.4-33.54-2.67-12.41.48-26.89,5.67-37.56,6-12.33,27.82-7.19,38.77-13.58,14.27-8.34,22.08-25.7,29.3-27.66,13.83-3.75,24.73,4.15,34.8,4.85,11.94.84,24.41-16.59,36.79-15.29C-46.78,378.21-37.68,387.17-23.71,384.81Z" transform="translate(308.59)"/><path class="cls-4" d="M-49.81,437.35c12.91-1.8,22.67-7.54,31.7-10.94C-6.26,422-1.69,409.61,7,404.21c9.58-6,21-9.95,31.78-14.41a114.28,114.28,0,0,1,34.76-8.21c14.29-1,25.83,4,34.45,6.56,10.24,3.08,18.68,6.64,31.26,9.4,8.54,1.87,18,12.89,32,12.38a147,147,0,0,0,32.88-5c9.53-2.51,18.53-6.85,30.7-10.49,8.54-2.55,15.88-16.52,28.58-19.23,12.52-2.66,26.54,9.95,36.89,8.16,12.24-2.11,22.09-11.8,33.1-12.41,11.31-.63,23.5-8.13,35.61-6.86,14.33,1.5,26.21,7.69,35.52,10.63C418,379,424.39,393.86,434.4,397.28s21.71-.22,36.48-2.17c19.47-2.57,31.61-2.63,42.29-10.19,8.51-6,15-17.19,34.16-22.78,13.8-4,28,4.89,41,4,14.94-1,27.76-9,39.94-7.65,19.22,2.19,34.41,2.12,40.91,3.92,16.37,4.53,29.72,3.11,39.09,7,11.65,4.87,18.74,22.36,35,21.76,15.18-.55,23.25-10.59,31.79-14.54,7.91-3.66,17.37,1,32.38-1.32,12.54-1.91,17.77-6.53,32-3.38,8.25,1.83,19.07,2.95,34.08,6.32,9.36,2.11,21.79-1.77,35.21.9,18.29,3.65,33.53-1.78,44.77-.1,28.35,4.24,35.52,13.23,42.2,12.15,13.51-2.18,21-8.14,28.09-11.52,12-5.72,21.54-14.31,32.62-12.18s27,13,35,25.43c6.11,9.45,3.73,26.18,8.12,39.25,3.84,11.42,3.43,24.56,6,37.31,2.47,12.35,1.54,25,2.85,37.36,1.39,13.15,12.51,25.27,12.62,37,.06,6.71-11.18,19.15-12.33,35.6-.74,10.7,6.1,23.53,3.92,36.49-1.9,11.31-8.49,22.12-12,34.11-3.31,11.32,2.4,26.75-2.76,37.83-5,10.8-19.33,17-26.51,26.81-7.46,10.2-9.66,25.47-18.73,33.08-9.28,7.78-25.17,6.38-36.25,11.88C1005.9,765,997,775.67,984.8,779.21c-11.11,3.22-23.79,3.56-36.4,5.68-11.41,1.92-24-1.37-36.72-.13-11.57,1.13-22.63,18.2-35.3,18.91-11.66.66-24.52-11.53-37.15-11.09-11.72.4-23.77,4.6-36.35,4.92-11.76.3-24.06-5.44-36.6-5.14-11.8.28-24-1.36-36.51-1-11.83.34-23.93,2.88-36.4,3.33-11.85.43-23.76,6.37-36.2,7s-24.89-4.19-36.74-3.49c-12.47.74-23.73,14.17-35.54,15-12.49.9-25.4-9-37.18-8-12.5,1.07-24.29,5.4-36,6.57-12.5,1.26-24.46,3.32-36.16,4.67-12.52,1.44-25-.6-36.64.92-12.53,1.64-24.74,2.08-36.34,3.77-12.53,1.83-26.24-6.85-37.78-5-12.55,2-21.51,22.43-33,24.39-12.56,2.16-25.7-2.64-37.14-.61-12.58,2.23-24.45,4.81-35.88,6.79-12.6,2.19-24.46,4.94-35.92,6.69-12.61,1.92-24.82,2.21-36.4,3.41C173.86,858.08,162,868,150.17,868.28c-12.34.24-24.06-14.57-36.11-15.77s-24.24,1.62-36.39-1.26c-11.35-2.69-25-.43-37-4.82-10.81-4-18.57-17-30.23-22.56-10.08-4.77-24.2-3.08-34.82-9-9.92-5.54-13.14-22.73-23.2-29.2-9.68-6.22-21.81-8.6-31.32-15.61-9.36-6.9-10.56-23.16-19.47-30.76s-32,.67-40.2-7.55-8.63-24-15.94-32.93c-7.52-9.19-18.41-15.51-24.52-25.23-6.35-10.07,1.77-26.34-2.72-36.89-4.64-10.92-20.4-16.69-22.69-28s.24-22.73.75-34.5c.44-10.15-3.52-21.86-.78-33.43,2.48-10.49,11.77-19,16.1-29.5,4.25-10.3,6.58-21,12.57-30.26,6.2-9.56,4.38-27.33,12.41-34.56,8.44-7.6,29.65,7.45,40,3.74,15.79-5.62,19.47-10.95,33.39-9C-80.37,442.55-67.65,439.83-49.81,437.35Z" transform="translate(308.59)"/><path class="cls-3" d="M-66.62,515.84c14.52-5.91,19.74-21.71,28.08-28,11.59-8.68,18.48-18.14,28.06-25.68,8.48-6.67,19.93-15.55,35.4-19.79,14.45-4,26.32-6.52,40.85-4.44,9,1.29,19.19,11.58,36,13.49C112,452.62,124,456.68,139,457.68c6.49.44,20.63-1.73,39.43-1.22,11.53.32,24.76-.68,39.25-.82,12.4-.12,25.66,2.72,39.35,2,16.49-.85,30.29,5.58,40.76,4.31,18.84-2.27,29.15-10.89,38.77-12.91,11.39-2.39,20.86-7.8,39.64-6.7,14.61.85,28.38-.73,39.35,1.84,14.27,3.33,21.47,21.63,32,25.82,13,5.16,27.42,1.84,39.46,4.39,11.29,2.4,24.14,7.14,39,3.56,13-3.15,13-20.91,19.61-25.94,7.83-5.92,21-3.12,30.94-9.78,6.74-4.51,12.41-17.58,24.7-21.66,11.7-3.87,25.89,1.13,37.48-.08s23.15,7.12,35.26,7.89c11.44.72,24-7.28,36.2-5.42,11.24,1.7,23,3.38,35.29,5.54,13.39,2.35,24.46,4.26,33.77,6.48,13,3.1,21.58,14.12,31.86,15.69s21-7.21,34.52-8.6c16-1.65,21.42-11,30.31-14.22,8.7-3.17,20.4-1.7,36.24-4.24,7-1.11,23,3.08,41.3,2.91,12.52-.11,25.79,2.72,39.62,5.88,13,3,21.65,11.92,33,19.74,10.14,7,17.59,12.17,24.05,22s5.58,20.67,9.16,32.17c3.52,11.31,14.31,20,15.81,31.75,1.54,12.13,10.82,23.74,11.05,35.13.26,13.12-9.22,25.36-9.5,35.72-.23,8.33,5.42,20.45,4.25,34.22-.88,10.34-5,21.51-7.2,33.41a269.45,269.45,0,0,1-8.44,32.82c-3.38,10.7-13.85,17.92-19.11,28s1.83,28.75-5.67,37.31c-8.73,10-22.24,16.34-32.64,22.08-10.62,5.86-23,14.09-35.71,16.45-11.37,2.12-25.27,7.71-38.56,7.71-11.55,0-24.62-5.43-37.79-6.55-11.62-1-22.29-18.23-35.28-19.79-11.68-1.41-24.55,2.25-37.42.61-11.75-1.49-25.38,8.38-38.19,6.86-11.82-1.4-22.27-19.32-35-20.61-11.89-1.2-24-7-36.75-8-12-.92-25.72,20.12-38.46,19.46-12-.62-23.59-20.84-36.32-21.14-12-.3-24.62,10-37.33,10.06s-24.84-.52-36.75-.14c-12.59.4-24.6,4.46-36.51,5.17-12.55.75-25-1.9-36.87-.88-12.5,1.07-24.13,7.26-36.05,8.54-12.42,1.34-24.36,3.86-36.3,5.33-12.34,1.52-25.49-5.1-37.48-3.54-12.26,1.58-24.76.09-36.83,1.6s-23,14.15-35.21,15.47S283.75,806,271.45,807c-12.07,1-24.44-5.19-36.85-4.63-12,.54-23.72,22.86-36.22,22.9-12,0-24.39-7.28-36.94-7.79-11.91-.48-23-16.83-35.54-17.89-11.86-1-23.41-3.37-35.93-4.94-11.8-1.48-24.74,4.8-37.21,2.75-8.6-1.41-19.33-4.86-32.64-8.17-10-2.48-22-1-33.57-5.28-10-3.69-20.64-7.58-31.3-13-9.69-4.95-19.87-10-29.59-16.72-9-6.22-16.06-15.27-24.74-23.26-9.23-8.5-18.56-16.71-26.54-26.51s-22.42-15.61-29-26.19c-6.82-11-7.4-25.64-12.4-36.78-5.44-12.12-2.33-26.15-5.34-37.62-3.53-13.41-25.39-24.52-25.16-35.8.29-14.6,22.85-21.42,30.32-29.84,8.67-9.77,13.17-18.57,27.42-18.71,9.88-.1,21.94,4.55,36.33,2.12C-93.26,519.86-79.67,521.15-66.62,515.84Z" transform="translate(308.59)"/><path class="cls-2" d="M-44.19,556.37c11.32-5,20.68-10.37,29.19-14.15,12.41-5.5,18.38-18.09,25.92-21.46,27.17-12.16,30.51,3.23,33.36,2.71,12.94-2.37,22.67-23.53,33.1-22.69,12.22,1,25.36,2.66,36.24,6s19.11,15,30.83,18.36c10.34,2.95,20.21,14.77,32.88,16.15,10.42,1.13,22.83-4.9,35.77-5.76,14.74-1,18.85-14.88,26.27-17.55,7.82-2.81,18.35,2.53,32.23-1.5,7.6-2.2,16.08-11.22,28.86-13.63,8.79-1.65,22.92,3.82,38.5,1.89,11.07-1.37,23.72-1.09,37.44-1.69,11.71-.51,24.56-9.75,37.76-9.2,12,.5,22.37,22.58,35.24,24.32,12,1.62,28-17.16,40.52-14.18,16.31,3.88,23.72,23.9,33.8,28.05,16.83,6.92,33.13.51,42.38,5.79,10.77,6.15,17.57,21,36,20.59,14.47-.33,21.32-20.58,31.93-25.09,12.13-5.15,21.38-7.84,31.12-15.83s24.78-9.58,35-17.58c9.62-7.57,16.33-23.91,28.82-29.07,10.63-4.39,25.78-10.85,40.09-11.91,15.26-1.12,24,13,35.53,16.81,7.91,2.62,17.21,7.94,32.8,11.94,9.12,2.34,19.68,8,33.5,10.6,9.95,1.88,22.34-2,35.41-.07s23.33,15.15,37.21,18.3c11.81,2.68,26.88-4.09,40.85,1.74,9.71,4.06,23,6.89,34.55,13.38,10.73,6,23.34,13,31.06,22.06,7,8.16,11.88,20.36,15.48,31.58,3.27,10.17-7.63,23-7,34.69.64,10.87,12.17,22,10.68,33.35-1.45,11-7.26,21.5-10.59,32.22s-5,22.51-10.16,32.26c-5.35,10.15-12.73,19.29-19.89,27.5-7.57,8.67-20.37,9.57-29.81,15.12C987,767.28,979,776.86,967,777.26c-11.25.38-21.37-9.63-34.75-12.93-10.71-2.65-24,.37-37.12-3.49-10.79-3.17-20.53-14.52-33.54-17.88-11-2.85-24.83,1.06-37.83-1.55-11.3-2.27-23.66-3.29-36.66-5.13-12.58-1.79-25.37,2.57-38,1.87-12.26-.67-24.35,2.05-37.45,2.28-12,.21-24.5-4.58-37.8-3.69-11.88.79-24.79-3.11-38.14-1.84-11.85,1.12-24.58.7-37.89,2.16-11.88,1.3-23.15,13.62-36.4,15.16-11.91,1.39-24.65.82-37.84,2.37-12,1.41-23,5.5-33.87,7-12,1.61-23.38,2.62-34.18,4.26-12.09,1.83-22.94,5.85-33.63,7.67-12.15,2.06-25.24-6.21-35.81-4.22-12.22,2.31-25.39-4.9-35.84-2.79-12.3,2.48-22.95,7.37-33.33,9.43-12.33,2.44-22.1,11.17-32.62,12.75-12.09,1.82-23,6.8-34.06,7.09-11.36.3-22.34-4.37-34.22-6.13-10.52-1.57-21.75-2.46-33.87-6-12.44-3.63-25.05-3.39-35.87-7.47-11.15-4.2-22.54-6.59-34.52-10.6-10.52-3.52-19.1-16.43-32.13-19.31C69,743.88,57.34,737.68,44,736c-12.19-1.51-23.87,2.71-33.66,2.23-12.49-.6-23.38.07-33-.06-12.3-.17-23.81,6.88-33.81,5a93.9,93.9,0,0,1-32.29-12.75c-10.08-6.39-19.08-16.9-27.08-26.27s-17.47-19.39-22.62-30.17c-5.49-11.49-7.41-25.5-8.82-36.89-1.61-13-.29-27.58,4.71-37.9,3.92-8.11,12.19-12.17,30.27-21.11,7.94-3.93,21.82-1,35.74-7.21C-67.41,566.83-56.76,561.92-44.19,556.37Z" transform="translate(308.59)"/></svg>