<svg id="Layer_1" data-name="Layer 1" xmlns="http://www.w3.org/2000/svg" viewBox="0 0 1024 720"><defs><style>.cls-1{fill:#b4ccf4;}.cls-2{fill:#a2cbfb;}.cls-3{fill:#8bbdfe;}.cls-4{fill:#73adfe;}</style></defs><g id="sky"><rect class="cls-1" width="1024" height="720"/><path class="cls-2" d="M-83.79,119.76c9.89-6.82,25.63-2.67,37.64-8.43,11-5.29,18.38-18.25,30.75-22.52,11.73-4,24.29-4.45,36.86-7.46,12.2-2.92,23.78-7.06,36.43-8.91s24.17-13,36.82-13.68,25.37,11.15,37.93,11.74c14.46.68,28.32-10.73,39.69-8.68,13.71,2.47,26.79,4.86,38.46,8.62,12,3.88,20.83,17,33.6,21.44,11.13,3.87,25.21.66,39,4.36,11.19,3,20.47,20.67,34.57,23.25,11.5,2.1,24.92,3.11,39,4.74,9.12,1,20.41,7.62,33.73,8.69,10.22.82,22.44-2.8,34.81-2.45,10.62.31,21.94-23.32,33.95-23.63,10.81-.28,22.36,11,34.16,10.06,10.89-.89,23,4.33,34.6,2.69,10.89-1.54,18.24-23.84,29.68-26.16,13.81-2.79,30.28,14.37,40.87,11.32,13.94-4,28.82-1.28,38.78-5.36,13.4-5.5,16.65-27.94,26.67-32.71,11.36-5.4,28,9.77,41.05,6.66,10.32-2.46,19-6.91,33.93-7.12,12.47-.17,22.79-.16,34.65,1.52s24.45-4.34,36.48-.91c11.1,3.16,24.92.21,36.9,4.82,10.65,4.1,17.88,18.24,29.71,23.44,10.45,4.59,20.58,11.21,32.28,16.64,10.4,4.82,29.41-7.29,41-1.83,5.64,2.65,15.56,10.79,29.11,17.46,9.19,4.52,15.38,18,25.85,23.54,9.93,5.21,18.75,12.86,28.18,18.34,10.66,6.19,21.32,10.73,29.14,16.46,9.21,6.74,21.83,10.61,30,19.3,7.79,8.27,6.21,24.41,13.06,34.22,6.5,9.32,28.18,10.05,33.82,20.58,5.38,10.05,1.46,25.52,6,36.51,4.41,10.56,10.6,20.93,14.26,32.21,3.55,10.92,3.14,23.3,6,34.78,2.77,11.19,17.39,20.39,19.48,32,2,11.38-3.24,24.49-1.85,36.15s-4.3,23.84-3.59,35.52,9.58,23.14,9.63,34.81,1.44,23.81.83,35.43-12.77,22.56-14.07,34.09,1.37,23.8-.65,35.2c-2,11.59,1,24.49-1.74,35.69-2.85,11.45-6.25,23.2-9.88,34.12-3.73,11.23-19.79,17.67-24.36,28.21-4.72,10.88-11,20.08-16.59,30.07-5.84,10.38,3.36,30.74-3.67,40.52s-24.13,11.95-32.14,21c-7.84,8.86-19.84,13.52-28.66,21.82-8.61,8.1-10.75,23.86-20.22,31.41-9.23,7.37-18.72,15.32-28.72,22.17-9.75,6.68-28,.14-38.39,6.32-10.17,6-15.47,20.61-26.23,26.17-10.51,5.43-18,18.11-29,23.09C905.1,932,895.73,942,884.48,946.4c-11,4.34-24.75,3.19-36.17,7.11-11.22,3.85-23.27,6.55-34.84,10-11.38,3.39-24.6,1.16-36.28,4.15-11.51,3-24.07,1.84-35.83,4.4s-22,12.07-33.82,14.22-23,8.73-34.91,10.48-24.48-1.15-36.42.22-23.88,3.1-35.84,4.09-24.66-10.57-36.63-9.95-23.4,14.65-35.38,14.9-24.12-1.59-36.09-1.7-23.79-8-35.74-8.44-24.2,4-36.13,3.2-23.88-2.71-35.77-3.91-23.45-5.81-35.28-7.4-22.3-11.63-34.07-13.6-25.15,5-36.83,2.67-26.27,6.7-37.85,3.91-19.14-22.18-30.6-25.4-22.15-8.8-33.47-12.47-20.38-13.16-31.52-17.3-30.84,12.76-41.77,8.11c-11.1-4.71-24.09-6.41-34.78-11.58C57.6,916.85,52.94,899,42.55,893.31c-10.57-5.82-18-16.44-28-22.76-10.22-6.42-22.11-9.76-31.74-16.69-9.79-7.05-18.84-14.68-28-22.26s-15.74-18-24.3-26.21S-85,787.71-92.88,778.79s-19.18-14.78-26.28-24.36-5.88-24.16-12.1-34.37-17.15-17.38-22.61-28.44c-5.34-10.81-23.65-16.19-28.21-27.63-4.48-11.22-1.68-25.6-5.42-37.32-3.67-11.53,6.77-26.81,3.82-38.72s-26.52-19.07-28.73-31.11-2.72-24.72-4.22-36.85,5.5-25.22,4.7-37.39-9.44-24.28-9.54-36.45,18.28-24,18.88-36.11,5.82-23.31,7.16-35.34c1.36-12.22-13.54-26.29-11.44-38.18,2.15-12.14,15.09-21.61,18-33.3,3-12,1.47-24.66,5.31-36,4-11.74,12.81-20.8,17.65-31.77,5-11.35-.28-27.41,5.69-37.79,6.19-10.77,20.14-16,27.35-25.57A237,237,0,0,1-109.49,145C-100.71,136.36-93.75,126.63-83.79,119.76Z"/><path class="cls-3" d="M-62.67,239.08c12.23,2.11,25.39,9.89,35.82,6.23,10.27-3.6,17.5-16.61,27.52-23.19,9.06-6,22.07-6.69,32.09-13.06C42,203.2,47.65,190.65,58.58,186c11.68-5,23.08-15.66,37.08-17,11.18-1.08,24.51,14.08,39.49,14.32,11.38.18,24.45-12,39.06-11.46,14.14.48,26.31,8.4,37.54,9.61,14.19,1.54,25.1,9.56,36.18,11.81,13.46,2.73,27.33-3.81,39-.89,11.94,3,22.34,12.94,35.65,15.13,11.18,1.84,23.83,6.13,38.11,6.75,13.12.57,24.71,2.74,33.83,1.82,11.39-1.15,21.78-6,32.76-8.87,9-2.32,15-20.79,27.66-23.8,9-2.15,22.82,11.33,35.25,9,9.44-1.77,19.74-3.94,31.8-5.75s22.29-19.15,34.74-20.9c12.22-1.71,26.47,11.39,39,10,12.25-1.38,24.56-.24,37.11-1.12,12.28-.85,24.15-9.9,36.76-10.07,12.29-.17,24.23,9.84,36.86,10.51,12.23.65,24.67-4.14,37.25-2.54,12.11,1.54,23.79,5.11,36.25,7.69,13,2.69,24.27,4.62,34.49,7.7,12.86,3.88,24.17,5.87,34,10.08,11.93,5.13,21.91,10.61,31.93,15.74,10.48,5.35,20.18,12.41,31.8,17.14,10,4.06,23.82-1.22,36.88,1.95,10.28,2.49,21.34,4.19,34.69,5.9,13.66,1.76,25.49-.66,36.71-.4,14,.31,25.61,4.18,36.65,3,13.91-1.5,27.42,5.65,38.37,3.41,13.18-2.7,23.29-17.45,35.18-18.31,11.63-.85,22.2,12.57,35.69,16.49,11.09,3.23,25.67-.9,36.3,5.57a196.74,196.74,0,0,1,29.19,22c8.55,7.75,12.66,20.59,20.57,30.11,7.43,8.94,16.1,17.3,22.85,27.56,6.43,9.78,18,17.2,23.73,28,5.51,10.41,10.54,21.86,15.28,33,4.63,10.9-4.77,27.15-1,38.59s23.61,18,26.49,29.67.17,24.87,2.08,36.67,1.69,24.14,2.56,36,3.64,24.18,3.37,36.05c-.27,12.06.84,24.69-.69,36.45-1.57,12-7.81,23.46-10.78,34.93-3,11.67-8.16,22.77-12.74,33.73-4.82,11.55-16.35,18.85-22.77,29.12-6.52,10.43-4.82,26.84-13,36.07-8,9-18.26,17-27.9,25-9.19,7.63-20.37,13.69-31,20.47-10,6.37-20.48,13.28-31.83,19-10.6,5.33-24.14,5.17-35.91,10-11,4.49-24.21,3.22-36.22,7.32-11.26,3.84-20.54,14.45-32.7,18-11.45,3.33-20.84,16-33.09,19.14-11.58,2.93-24,4.76-36.3,7.52-11.68,2.62-23.87,5.1-36.21,7.59-11.76,2.37-24.45,1.92-36.8,4.2-11.81,2.18-25.23-3.12-37.6-1-11.86,2-24.71-.8-37.09,1.18-11.9,1.9-21.59,19.44-34,21.32-11.92,1.81-24.24,2.75-36.61,4.55-12,1.74-25.39-5.44-37.76-3.7-12,1.69-22.87,12.47-35.22,14.18-12,1.65-26.33-12.6-38.68-10.92-12,1.63-22.6,14.84-34.94,16.51-12,1.62-24.09,3.91-36.43,5.57-12,1.61-24.92-5-36.58-3.49-12,1.61-22.07,16.32-33.72,17.88-12,1.6-24.92-5-36.57-3.46-12,1.58-23.89,2.78-35.54,4.28-12,1.55-25-6-36.64-4.53-12,1.51-22.82,11.47-34.46,12.86-12.06,1.45-23.15,9.52-34.79,10.84-12.08,1.37-24.6-3.12-36.24-1.9-12.11,1.26-24.37-1.72-36-.63-12.13,1.13-24.31-2.28-36-1.36-12.16,1-23.28,12-34.92,12.71-12.19.76-23.84,8.67-35.48,9.14-12.22.5-24.38,1.2-36,1.36-12.24.16-24.12-17.34-35.75-17.57-12.25-.25-24.51,10.27-36.1,9.54-12.23-.77-24.12-3-35.66-4.31-12.17-1.41-22.2-13.45-33.64-15.53-12-2.19-23-4.7-34.23-7.68-11.77-3.11-22.21-6.8-33.21-10.83-11.35-4.16-21.85-7.53-32.45-12.73s-22.09-7.88-32.14-14.3-23.86-7.24-33.22-14.82c-9.14-7.39-22-11.71-30.57-20.29s-3.87-29.56-11.72-39.1-30-8.2-36.92-18.41-8.25-24.37-14.33-35.12-16.79-19.48-22-30.65-11.86-22.42-16.23-33.94,7.62-28.69,4.09-40.47-4.58-23.7-7.26-35.67-23.75-20.72-25.57-32.82c-1.84-12.28,10.16-26.27,9.24-38.44-.94-12.41-.49-24.45-.45-36.62,0-12.49-3-24.74-2-36.82,1.1-12.48-5.23-26.1-3-38,2.3-12.35,11.49-23.26,15-34.8a281.51,281.51,0,0,1,12.75-34.78c5.22-11.45,7.46-24.92,14.14-35,5.38-8.08,14.36-17.59,23.32-28.35,7.21-8.65,21.59-12.19,30.44-21.21,8.32-8.48,10.79-23.88,20-31.64,9.45-7.93,20.62-14.48,30.52-20.59,10.91-6.75,22-15.51,32.75-18.66,12.41-3.64,28.78-5.68,40-2.46C-75.92,226.78-75.26,236.9-62.67,239.08Z"/><path class="cls-4" d="M-78.21,367c12.9-1.45,22.8-13.51,33.09-16.11,12.58-3.17,22.25-8.4,32-12.83,11.43-5.21,25.9-2.9,35.16-9.12,9.86-6.62,20.16-12.25,29.76-19.11,9.16-6.54,18.52-11.64,29.46-17.56,9.49-5.14,14.65-21.86,26.87-25.95A261,261,0,0,1,143,257.68c13.62-2.49,26.87,6.08,38,5.79A185.26,185.26,0,0,1,217.23,266c12.58,2.06,25.92-2.62,37.83.65,11.48,3.16,20.54,17.54,33.36,20.37,11.15,2.46,25.41-9.16,38.94-7.95,11.22,1,22.81,3.11,36.46,2.67,11.32-.37,23.64,2.21,37.09.52,13.12-1.65,25.68,4.19,35.06,2.07,13-2.93,21.34-13.84,30.66-17.23,10.67-3.88,17.83-15.43,29.38-19.19,9.19-3,21.32-2.69,34.52-5.17,9.54-1.79,20.88-4.06,33.89-5.41,7.74-.8,20.27-1.82,36.06-2.41,10.42-.39,22.63,4.94,36,5.22,11,.24,23.33-3.76,36.07-2.78,11.27.87,22.81,6.62,35.23,8.27,11.35,1.5,21.62,11.51,33.79,13.81,11.35,2.14,25.92-9,37.86-6.05,12.17,3,19.37,18.08,28.75,21,12.36,3.89,27.67-6.17,36.49-2.52,12.15,5,19.4,15.36,28.15,19.52,10.33,4.91,16.75,18.63,28.19,21.63,9.11,2.39,21.29,2.16,34.71,2.9,14.58.81,28.08-4.13,39.84-5.6,14.39-1.8,24.07-14.75,35.47-18.48,13.48-4.41,26.64-4.83,38-9.45,12.62-5.13,25.15-12.18,38.09-14.07,11.84-1.73,23.78,10.5,38.35,14.43,11.35,3.06,22.27,3.77,31.88,9.57,9.88,6,19.55,11.74,27.69,19.66,8.3,8.07,20.42,13.37,27,22.47,7,9.59,11.62,21,16.82,30.6,6,11,2.69,25.37,6.54,34.73,6.51,15.82,13.42,26.44,14.66,30.76,3.4,11.85,4.56,23.76,6.22,35.84s-3.28,24-3.3,36.19,1.9,23.73.28,35.82,2.5,25.18-.67,36.93c-3.22,11.93-11.76,21.69-16.43,32.9-4.77,11.43.27,27.91-5.9,38.33-6.32,10.69-25.06,12.6-32.72,21.95-7.46,9.11-15.12,16.31-25.22,24.53-8.68,7.06-11.66,23.85-23.64,30.18a272.35,272.35,0,0,1-33.94,15.65c-10.5,3.84-25.7-4-38.62-.56-10.94,2.94-20.8,13.55-33.73,16.21-11.22,2.31-24,.27-36.87,2.36-11.41,1.86-23.47,3.22-36.3,4.9-11.55,1.51-23.12,7.61-35.89,9-11.65,1.25-23.76,3.45-36.49,4.57-11.73,1-23.93,2.52-36.62,3.45-12.47.91-24.64-1-36.17-.34-12.51.73-24.73-4.07-36.24-3.59-12.56.52-24.48-.8-36-.55-12.59.28-24.43,9.95-35.9,9.95-12.6,0-24.53-4.59-36-4.88-12.57-.31-24.9,7.61-36.4,7-12.47-.63-23.88-10.39-35.47-11.24-12.29-.91-24.44,1.31-36.18.27-12-1.07-23.18-10.43-35.15-11.52-11.81-1.08-24.47,6.39-36.68,5.41-11.63-.93-23.88,4.18-36.29,3.45-11.52-.68-22.91-12.47-35.45-12.9-11.47-.39-23.67,12.67-36.26,12.56-11.47-.1-23.27-2.27-35.87-2.09-11.48.17-23.53-5.39-36.1-5-11.5.4-23.27,4.86-35.8,5.52s-24.7-4.66-36.2-3.87c-12.45.86-24.56-.18-36,.79-12.48,1.06-23.89,7.68-35.28,8.8-12.52,1.24-24.15,4.64-35.48,5.86-12.56,1.36-25.6-8-36.87-6.79-12.62,1.37-23.91,7.79-35.16,8.83-12.67,1.16-24.47,2.91-35.75,3.41-12.63.55-24.5.44-35.89-.19-12.32-.68-22.31-10.07-33.82-12.56s-24.89,2.84-36.27-2a233,233,0,0,1-32-16.5c-10.55-6.5-14.63-20.81-23.79-28.25-9.6-7.79-24.45-8.84-32.64-17.37-8.57-8.92-18.6-16.63-25.74-26-7.53-9.9-6.66-25-12.74-35.05-6.53-10.75-19.7-17.27-24.73-27.68-5.6-11.59-2.31-26.12-6.27-36.62-4.81-12.73-5.25-24.81-8.06-34.83-5.65-20.13-11.76-31.8-12-33.57-1.31-9.34-10.08-21.86-10.93-36.88-.67-11.89,1.77-25,3.18-38,1.36-12.59,2.15-25.92,6.91-37.47s10.78-24.68,20.53-33.21c10.78-9.43,25.07-7.14,37.62-8.67,11.32-1.38,23.82-10.21,38.21-9.24,11.4.77,23.57,8.4,37.76,8.47C-105.58,362.47-92.14,368.54-78.21,367Z"/><path class="cls-2" d="M-23.71,384.81c12.72-2.15,18.54-7.57,26.08-11.5,8.33-4.35,17.45-5.68,27.89-11.68A219.18,219.18,0,0,1,57.91,348.3c10.82-4.34,24.31,2.95,36,.47,10.48-2.22,20-12.33,32.65-13.65C137,334,148.93,341,161.73,340.2c10.56-.68,21.72-6.22,34.38-6.92,14.83-.82,27.14-4.94,37.85-5.19,16-.38,28,4.09,38,4.38,15,.42,25.64,6.37,38.16,6.28,10.18-.08,20.76-16.44,37-18.29,14.15-1.61,26,1.42,35.85-.49,14.17-2.74,28,6.53,38.06,3.73,11.15-3.11,20-8.79,33.41-11.1,9.77-1.68,20.46-1.84,35-2.67,11.84-.68,18.32-12.23,31.62-11.24,7.64.57,17.88-3,32.14-1.82,8.74.73,18.48,9.51,31.06,10.49,9.32.73,19.9.6,31.82,1.48,14.27,1.05,26.54,5.09,37.55,5.83,15.18,1,28-5.15,38.21-4.55,17.47,1,28.18,13.42,37.13,13.92,13.89.79,22.94-9.73,38.69-7.35,14.19,2.15,25.24,9.54,35.45,11.72,14.83,3.17,28.09-.54,37.68,2.35,13.35,4,23.93,3,35.89,5.62,9.94,2.15,18.91,13.73,34.34,14.21,14.28.44,26.06-4.14,36.85-5.33,14.53-1.61,26.77-.16,37.08-3.06,13.71-3.85,26.32,0,37.55-2.14s17.88,1.37,32.27,5.43c10.94,3.08,25-3.71,35.17,2.81,9.54,6.12,17.34,15,25.78,23.55,8,8.15,17.56,15.5,24.23,25.39,6.45,9.56,12.87,19.74,17.77,30.49,4.81,10.58,9.61,21.75,12.62,33.09s-11,24.59-10.13,36.24,1.69,20.74.22,32.35c-1.51,11.91-1.11,21.29-4.85,31.74-4,11.12-2.86,22.86-8.75,32.46-6.13,10-14.54,17.06-22,25.54-7.79,8.83-10.44,22.17-18.91,29.51-9.08,7.87-18,15.59-26.91,21.92-10.28,7.34-21.94,11-30.5,16.61-6.71,4.36-15,14.24-30.38,21.31a356.41,356.41,0,0,1-34.36,14c-10.34,3.54-22.07,7.89-35.27,11.36-10.88,2.87-21,15.25-34.07,17.93-11.21,2.31-24.78-1.2-37.71.89-11.43,1.84-22.94,10.76-35.8,12.37-11.78,1.48-25.17-13.75-36.29-12.72-11.67,1.08-23.16-.56-34.48.08-11.51.65-22.54,12.19-34.07,12.45-11.32.26-22.93-3.22-34.66-3.28-11.17-.06-22.25-17.87-34.12-18.16-11.07-.27-22.69,8.78-34.64,8.35-11-.39-22.57,2.08-34.56,1.59-12.93-.53-25.52,2.06-37.52,1.53-13-.58-25.36-2.77-37.31-3.35-13.05-.64-25.85,5.34-37.73,4.7-13.13-.7-25.41-4.69-37.2-5.38-13.24-.78-25.09-10.69-36.77-11.45-13.39-.88-25.78-1.51-37.31-2.36-13.61-1-26.41,3.84-37.74,2.91-13.92-1.14-27.05,6.62-38.09,5.61-14.36-1.31-26-8.26-36.74-9.27-14.6-1.38-26.31-2.79-37.16-3.42-12.89-.75-24.29-5.45-37.31-4.83-10.8.52-22,8.26-36.61,10-13.47,1.56-27.89-9.54-39.79-7.74-13.54,2-25,11.59-36.74,13.65-13.67,2.4-24.94,12.26-36.52,14.19-13.92,2.31-27.76-4.29-39.3-3.48-14,1-27.7,7.27-39.32,4.57-12.13-2.82-29.51-4.06-40.39-12.68-11.85-9.39-10.19-27.59-15.3-40.61-3.72-9.5-1-23.24-6.19-39.12-3.38-10.36-20.22-18-25.71-32.36-4.1-10.73-3.42-24.77-9.27-38.25-4.71-10.87-4-25.53-10.14-38.44-5.4-11.37-10.26-22-15-31.46-5.74-11.58-21.39-16.9-25.66-26.27-5.6-12.29-11.31-23.87-13.4-33.55-2.67-12.41.48-26.89,5.67-37.56,6-12.32,27.82-7.18,38.77-13.58,14.27-8.34,22.08-25.7,29.3-27.66,13.83-3.75,24.73,4.15,34.8,4.85,11.94.83,24.4-16.59,36.79-15.29C-46.78,378.21-37.68,387.17-23.71,384.81Z"/><path class="cls-3" d="M-49.81,437.35c12.92-1.8,22.67-7.54,31.7-10.93C-6.26,422-1.69,409.62,7,404.22c9.58-6,21-10,31.78-14.41a113.93,113.93,0,0,1,34.76-8.2c14.29-1,25.83,4,34.45,6.56,10.23,3.08,18.68,6.64,31.26,9.4,8.54,1.87,18,12.89,32,12.38a147.06,147.06,0,0,0,32.88-5c9.53-2.51,18.54-6.85,30.7-10.48,8.55-2.55,15.88-16.53,28.58-19.23,12.52-2.67,26.54,10,36.89,8.16,12.24-2.11,22.09-11.8,33.1-12.41,11.31-.63,23.5-8.14,35.61-6.87,14.33,1.5,26.21,7.7,35.52,10.63C418,379,424.39,393.88,434.4,397.3s21.71-.22,36.48-2.17c19.47-2.57,31.61-2.63,42.28-10.19,8.52-6,15-17.19,34.17-22.79,13.8-4,28,4.89,41,4,14.93-1,27.75-9,39.93-7.65,19.22,2.19,34.42,2.13,40.92,3.92,16.37,4.53,29.72,3.11,39.09,7,11.65,4.87,18.74,22.36,35,21.76,15.18-.55,23.25-10.59,31.78-14.54,7.91-3.66,17.37,1,32.38-1.32,12.55-1.91,17.77-6.53,32-3.38,8.25,1.82,19.07,2.95,34.08,6.32,9.36,2.1,21.79-1.77,35.21.9,18.29,3.64,33.53-1.78,44.77-.1,28.35,4.24,35.52,13.23,42.2,12.15,13.51-2.18,21-8.14,28.09-11.52,12-5.72,21.54-14.3,32.62-12.18s27,13,35,25.43c6.12,9.45,3.73,26.18,8.13,39.25,3.83,11.41,3.43,24.56,6,37.31,2.48,12.35,1.54,25,2.85,37.36,1.39,13.15,12.51,25.27,12.62,37,.06,6.71-11.18,19.15-12.32,35.6-.74,10.7,6.09,23.53,3.92,36.49-1.9,11.31-8.49,22.12-12,34.11-3.31,11.31,2.4,26.75-2.76,37.83-5,10.8-19.33,17-26.51,26.81-7.46,10.2-9.66,25.47-18.73,33.08-9.28,7.78-25.17,6.38-36.24,11.88C1005.9,765,997,775.68,984.8,779.22c-11.11,3.22-23.79,3.56-36.4,5.68-11.41,1.92-24-1.37-36.72-.13-11.57,1.13-22.63,18.19-35.3,18.91-11.66.66-24.52-11.54-37.15-11.1-11.72.41-23.77,4.61-36.35,4.92-11.77.3-24.06-5.44-36.6-5.14-11.8.28-24-1.35-36.51-1-11.83.33-23.93,2.88-36.4,3.33-11.85.43-23.76,6.37-36.2,6.95s-24.89-4.19-36.74-3.49c-12.48.74-23.73,14.17-35.55,15-12.49.9-25.4-9-37.18-8-12.5,1.07-24.29,5.4-36,6.57-12.51,1.25-24.46,3.31-36.16,4.66-12.52,1.44-25-.6-36.64.93-12.52,1.64-24.74,2.08-36.34,3.77-12.53,1.83-26.24-6.86-37.78-5-12.55,2-21.51,22.43-33,24.39-12.56,2.15-25.7-2.64-37.15-.61-12.58,2.23-24.45,4.81-35.88,6.79-12.6,2.19-24.46,4.94-35.92,6.69-12.61,1.92-24.82,2.21-36.4,3.42-12.56,1.31-24.44,11.27-36.24,11.5-12.35.25-24.07-14.57-36.12-15.77s-24.23,1.62-36.39-1.26c-11.35-2.69-25-.43-37-4.82-10.81-4-18.57-17-30.23-22.56-10.08-4.76-24.2-3.07-34.82-9-9.92-5.54-13.15-22.73-23.2-29.2-9.68-6.23-21.81-8.6-31.32-15.61-9.36-6.9-10.55-23.16-19.47-30.76s-32,.67-40.2-7.55-8.63-24-15.94-32.93c-7.52-9.19-18.41-15.51-24.53-25.23-6.35-10.08,1.78-26.34-2.71-36.9-4.65-10.91-20.4-16.68-22.69-28s.24-22.73.74-34.5c.44-10.15-3.52-21.86-.78-33.43,2.48-10.48,11.78-19,16.1-29.5,4.25-10.3,6.58-21,12.57-30.26,6.21-9.56,4.38-27.33,12.42-34.56,8.44-7.6,29.64,7.45,40,3.75,15.79-5.62,19.46-10.95,33.38-9C-80.37,442.55-67.65,439.83-49.81,437.35Z"/><path class="cls-2" d="M-66.62,515.84c14.53-5.91,19.75-21.71,28.09-28C-26.94,479.2-20,469.73-10.47,462.2c8.49-6.68,19.94-15.56,35.4-19.79,14.45-4,26.31-6.52,40.84-4.44,9,1.29,19.19,11.58,36,13.49C112,452.62,124,456.68,139,457.69c6.49.43,20.63-1.74,39.42-1.22,11.54.32,24.77-.69,39.25-.83,12.4-.12,25.66,2.73,39.35,2,16.49-.85,30.29,5.57,40.75,4.31,18.84-2.28,29.15-10.89,38.77-12.91,11.39-2.39,20.86-7.8,39.64-6.71,14.61.85,28.37-.72,39.34,1.84,14.28,3.33,21.47,21.63,32,25.82,13,5.16,27.42,1.85,39.46,4.4,11.29,2.39,24.13,7.14,39,3.55,13-3.15,13-20.9,19.61-25.93,7.83-5.93,21-3.12,30.94-9.78,6.74-4.52,12.41-17.59,24.7-21.66,11.69-3.87,25.89,1.12,37.48-.08s23.15,7.12,35.26,7.89c11.44.72,24-7.28,36.2-5.42,11.24,1.71,23,3.38,35.29,5.54,13.39,2.36,24.46,4.26,33.77,6.48,13,3.1,21.58,14.12,31.87,15.69s21-7.21,34.52-8.61c16-1.65,21.41-11,30.3-14.22,8.7-3.17,20.4-1.7,36.24-4.24,7-1.11,23,3.07,41.3,2.91,12.52-.11,25.79,2.72,39.63,5.88,13,3,21.65,11.92,33,19.74,10.14,7,17.59,12.17,24,22s5.58,20.67,9.16,32.18c3.52,11.31,14.31,20,15.81,31.74,1.54,12.13,10.82,23.74,11.05,35.13.26,13.12-9.22,25.36-9.5,35.72-.23,8.33,5.42,20.46,4.25,34.22-.88,10.33-5,21.51-7.2,33.41a267.71,267.71,0,0,1-8.45,32.82c-3.38,10.7-13.85,17.92-19.11,28s1.83,28.75-5.67,37.31c-8.73,10-22.24,16.35-32.64,22.08-10.62,5.86-23,14.09-35.71,16.45-11.37,2.11-25.27,7.7-38.55,7.71-11.55,0-24.62-5.43-37.79-6.55-11.62-1-22.29-18.23-35.28-19.79-11.68-1.4-24.55,2.25-37.42.61-11.75-1.49-25.38,8.38-38.18,6.86-11.82-1.4-22.27-19.33-35-20.61-11.89-1.2-24-7-36.75-8-12-.93-25.72,20.12-38.46,19.46-12-.62-23.59-20.84-36.31-21.14-12-.29-24.63,10-37.33,10.07s-24.85-.52-36.75-.14c-12.59.4-24.6,4.46-36.51,5.17-12.55.75-25-1.9-36.87-.88-12.5,1.07-24.13,7.26-36.05,8.54-12.42,1.34-24.36,3.86-36.3,5.33-12.34,1.52-25.49-5.1-37.48-3.55-12.26,1.59-24.76.1-36.83,1.6s-23,14.15-35.21,15.47S283.75,806,271.45,807c-12.07,1-24.44-5.18-36.85-4.63-12,.54-23.72,22.86-36.22,22.9-12,0-24.39-7.28-36.94-7.79-11.91-.48-23-16.83-35.54-17.89-11.85-1-23.4-3.37-35.93-4.94-11.79-1.48-24.73,4.8-37.21,2.75-8.6-1.41-19.33-4.86-32.64-8.17-10-2.48-22-1-33.56-5.28-10.06-3.69-20.65-7.58-31.3-13-9.69-5-19.87-10-29.59-16.72-9-6.23-16.06-15.28-24.73-23.26-9.23-8.5-18.57-16.71-26.54-26.5s-22.43-15.61-29-26.2c-6.82-11-7.4-25.64-12.4-36.78-5.44-12.11-2.32-26.14-5.34-37.61-3.53-13.42-25.39-24.53-25.16-35.81.29-14.6,22.85-21.42,30.33-29.84,8.67-9.77,13.17-18.57,27.41-18.71,9.89-.1,22,4.55,36.34,2.12C-93.26,519.86-79.67,521.15-66.62,515.84Z"/><path class="cls-1" d="M-44.19,556.37c11.32-5,20.68-10.37,29.19-14.15,12.41-5.51,18.38-18.09,25.91-21.47,27.18-12.16,30.51,3.23,33.36,2.71,12.94-2.37,22.67-23.53,33.1-22.69,12.22,1,25.36,2.66,36.24,6s19.11,15,30.83,18.36c10.34,2.94,20.2,14.77,32.87,16.15,10.42,1.13,22.83-4.9,35.77-5.76,14.74-1,18.85-14.88,26.27-17.55,7.82-2.81,18.35,2.53,32.23-1.5,7.59-2.2,16.08-11.22,28.85-13.63,8.79-1.66,22.92,3.81,38.5,1.89,11.07-1.37,23.72-1.09,37.44-1.69,11.71-.51,24.56-9.75,37.76-9.2,12,.5,22.36,22.58,35.24,24.32,12,1.62,28-17.16,40.51-14.18,16.31,3.88,23.72,23.9,33.8,28.05,16.83,6.92,33.13.51,42.38,5.79,10.77,6.14,17.56,21,36,20.59,14.47-.33,21.32-20.58,31.93-25.09,12.13-5.15,21.38-7.84,31.12-15.83s24.77-9.59,35-17.58c9.62-7.57,16.33-23.91,28.82-29.07,10.63-4.39,25.79-10.86,40.1-11.91,15.26-1.12,24,13,35.53,16.8,7.91,2.62,17.2,7.94,32.8,11.95,9.12,2.34,19.68,8,33.5,10.6,9.95,1.88,22.34-2,35.41-.07s23.32,15.15,37.21,18.3c11.8,2.68,26.88-4.09,40.85,1.74,9.71,4.06,23,6.89,34.55,13.38,10.74,6,23.34,13,31.06,22.06,6.95,8.16,11.89,20.36,15.49,31.59,3.26,10.17-7.64,23-7,34.68.63,10.87,12.16,22,10.67,33.35-1.45,11-7.26,21.5-10.58,32.22s-5,22.51-10.16,32.27c-5.35,10.15-12.73,19.28-19.9,27.49-7.57,8.67-20.37,9.57-29.81,15.13-11.73,6.91-19.7,16.49-31.69,16.89-11.26.38-21.38-9.63-34.75-12.94-10.72-2.65-24,.37-37.13-3.49-10.79-3.17-20.53-14.52-33.53-17.88-11-2.85-24.84,1.06-37.83-1.55-11.3-2.27-23.66-3.3-36.66-5.14-12.58-1.78-25.38,2.58-38.05,1.88-12.26-.68-24.35,2.05-37.45,2.28-12,.21-24.5-4.58-37.8-3.69-11.88.79-24.79-3.11-38.14-1.84-11.85,1.13-24.58.7-37.89,2.17-11.87,1.3-23.14,13.62-36.39,15.16-11.92,1.38-24.66.81-37.84,2.37-12,1.41-23,5.5-33.87,7-12,1.61-23.38,2.63-34.19,4.27-12.08,1.83-22.94,5.85-33.63,7.67-12.15,2.07-25.23-6.21-35.8-4.21-12.22,2.3-25.4-4.9-35.84-2.79-12.3,2.48-22.95,7.37-33.33,9.42-12.32,2.44-22.1,11.17-32.62,12.76-12.09,1.82-23,6.8-34.07,7.09-11.36.3-22.34-4.37-34.21-6.13-10.53-1.57-21.76-2.46-33.87-6-12.44-3.62-25.05-3.39-35.87-7.47-11.15-4.2-22.54-6.58-34.51-10.59-10.53-3.53-19.1-16.43-32.14-19.32C68.93,743.91,57.31,737.7,44,736.05c-12.19-1.5-23.88,2.71-33.67,2.23-12.49-.61-23.37.06-33-.06-12.3-.16-23.81,6.88-33.81,5a93.75,93.75,0,0,1-32.29-12.75c-10.08-6.39-19.08-16.9-27.08-26.26s-17.47-19.4-22.62-30.17c-5.49-11.5-7.41-25.51-8.82-36.89-1.61-13-.29-27.58,4.71-37.9,3.92-8.1,12.19-12.17,30.27-21.11,7.94-3.93,21.82-1,35.75-7.21C-67.41,566.83-56.76,561.92-44.19,556.37Z"/></g></svg>